<?xml version="1.0" encoding="UTF-8"?>
<svg id="Layer_1" xmlns="http://www.w3.org/2000/svg" version="1.1" viewBox="0 0 2000 2000">
  <!-- Generator: Adobe Illustrator 29.5.1, SVG Export Plug-In . SVG Version: 2.1.0 Build 141)  -->
  <defs>
    <style>
      .st0 {
        fill: #3b003a;
      }

      .st1 {
        fill: #fc6;
      }

      .st2 {
        fill: #ffbd59;
      }

      .st3 {
        fill: #5f003a;
      }
    </style>
  </defs>
  <g id="eye-base">
    <path class="st3" d="M1396.4,939c0,.6,0,1.1-.3,1.7-65.9,171.5-231.8,290.2-415.4,289.4-183.2-.9-347.8-115.4-412.4-287-.1-.4-.2-.7-.3-1,0-.7,0-1.5.3-2.2,64.7-171.2,229.2-285.5,412.2-286.4,183.7-.9,349.8,112.8,415.6,284.4.1.4.2.7.3,1.1Z"/>
    <path class="st3" d="M1142,1331.6h5.3c4.9,0,9.6.9,14.2,2.8,4.5,1.9,8.6,4.5,12,8,3.5,3.5,6.2,7.5,8.1,12.1,1.9,4.5,2.8,9.3,2.8,14.2v470.7c0,4.9-.9,9.6-2.8,14.2-1.9,4.5-4.5,8.6-8.1,12.1-3.5,3.5-7.5,6.2-12,8-4.5,1.9-9.3,2.8-14.2,2.8h-5.3c-4.9,0-9.7-.9-14.2-2.8-4.5-1.8-8.6-4.5-12.1-8-3.5-3.5-6.2-7.5-8.1-12.1-1.8-4.5-2.8-9.3-2.8-14.2v-470.7c0-4.9.9-9.6,2.8-14.2,1.9-4.5,4.6-8.6,8.1-12.1,3.5-3.5,7.5-6.1,12.1-8,4.5-1.9,9.3-2.8,14.2-2.8Z"/>
    <path class="st3" d="M824,1325.5c4.9,0,9.6.9,14.2,2.8s8.6,4.5,12.1,8c3.5,3.5,6.1,7.5,8,12.1,1.9,4.5,2.8,9.3,2.8,14.2v470.7c0,4.9-.9,9.6-2.8,14.2-1.9,4.5-4.5,8.6-8,12.1-3.5,3.5-7.5,6.2-12.1,8-4.5,1.9-9.3,2.8-14.2,2.8s-9.7-.9-14.2-2.8c-4.5-1.8-8.6-4.5-12-8-3.5-3.5-6.2-7.5-8.1-12.1-1.8-4.5-2.8-9.3-2.8-14.2v-470.7c0-4.9.9-9.6,2.8-14.2,1.9-4.5,4.6-8.6,8.1-12.1,3.5-3.5,7.5-6.1,12-8,4.5-1.9,9.3-2.8,14.2-2.8Z"/>
    <path class="st0" d="M339,1132.3c-18.9,24.4-1.4,59.8,29.3,59.8l296.6,53.2c20.5,0,37.1,16.6,37.1,37.1v408.3c0,20.5-16.6,37.1-37.1,37.1h-5.3c-20.5,0-37.1-16.6-37.1-37.1v-346c0-20.4-16.5-37-37-37.1l-360.8-55c-30.7,0-48-35.3-29.3-59.7L947.2,63.7c14.9-19.4,44.1-19.3,58.9.2l796.7,1129.5c18.5,24.3,1.4,59.3-29.1,59.6l-399,58.7c-20.3.2-36.7,16.7-36.7,37.1v341.8c0,20.5-16.6,37.1-37.1,37.1s-37.1-16.6-37.1-37.1v-408.3c0-20.5,16.6-37.1,37.1-37.1l333.4-53.2c30.8,0,48.2-35.4,29.3-59.8L1006.2,180.2c-15-19.5-44.2-19.3-58.9.4l-608.2,951.7Z"/>
    <path class="st1" d="M979.6,1432.9h5.3c4.9,0,9.6.9,14.2,2.8,4.5,1.9,8.6,4.5,12,8,3.5,3.5,6.2,7.5,8.1,12.1,1.9,4.5,2.8,9.3,2.8,14.2v470.7c0,4.9-.9,9.6-2.8,14.2-1.9,4.5-4.5,8.6-8.1,12.1-3.5,3.5-7.5,6.2-12,8-4.5,1.9-9.3,2.8-14.2,2.8h-5.3c-4.9,0-9.7-.9-14.2-2.8-4.5-1.8-8.6-4.5-12.1-8-3.5-3.5-6.2-7.5-8.1-12.1-1.8-4.5-2.8-9.3-2.8-14.2v-470.7c0-4.9.9-9.6,2.8-14.2,1.9-4.5,4.6-8.6,8.1-12.1,3.5-3.5,7.5-6.1,12.1-8,4.5-1.9,9.3-2.8,14.2-2.8Z"/>
  </g>
  <g id="iris">
    <path d="M979.3,751.8c-107.8,0-195.1,87.3-195.1,195.1s87.3,195.1,195.1,195.1,195.1-87.3,195.1-195.1-87.3-195.1-195.1-195.1Z"/>
  </g>
  <g id="pupil">
    <path class="st2" d="M979.3,1021.5c-39.4,0-71.5-32.1-71.5-71.5s32.1-71.5,71.5-71.5,71.5,32.1,71.5,71.5-32.1,71.5-71.5,71.5Z"/>
  </g>
</svg>